<svg width="32" height="31" viewBox="0 0 32 31" fill="none" xmlns="http://www.w3.org/2000/svg">
<path d="M9.47009 30.943C8.64744 30.943 7.94295 30.6434 7.35662 30.0442C6.7703 29.445 6.47764 28.7256 6.47863 27.886C6.47863 27.0453 6.7718 26.3254 7.35812 25.7262C7.94445 25.127 8.64843 24.8279 9.47009 24.8289C10.2927 24.8289 10.9972 25.1285 11.5835 25.7277C12.1699 26.3269 12.4625 27.0463 12.4615 27.886C12.4615 28.7266 12.1684 29.4466 11.5821 30.0457C10.9957 30.6449 10.2917 30.944 9.47009 30.943ZM24.4274 30.943C23.6047 30.943 22.9002 30.6434 22.3139 30.0442C21.7276 29.445 21.4349 28.7256 21.4359 27.886C21.4359 27.0453 21.7291 26.3254 22.3154 25.7262C22.9017 25.127 23.6057 24.8279 24.4274 24.8289C25.25 24.8289 25.9545 25.1285 26.5408 25.7277C27.1271 26.3269 27.4198 27.0463 27.4188 27.886C27.4188 28.7266 27.1256 29.4466 26.5393 30.0457C25.953 30.6449 25.249 30.944 24.4274 30.943ZM6.77778 3.42982H31.4573L24.016 17.1864H11.1154L9.47009 20.2434H27.4188V23.3004H4.42201L8.8718 15.0465L3.48718 3.42982H0.495728V0.372803H5.35684L6.77778 3.42982Z" fill="black"/>
</svg>
