<svg width="26" height="29" viewBox="0 0 26 29" fill="none" xmlns="http://www.w3.org/2000/svg">
<g filter="url(#filter0_d_208_9)">
<path d="M20.6 21L14.3 14.7C13.8 15.1 13.225 15.4167 12.575 15.65C11.925 15.8833 11.2333 16 10.5 16C8.68333 16 7.146 15.3707 5.888 14.112C4.63 12.8533 4.00067 11.316 4 9.5C4 7.68333 4.62933 6.146 5.888 4.888C7.14667 3.63 8.684 3.00067 10.5 3C12.3167 3 13.854 3.62933 15.112 4.888C16.37 6.14667 16.9993 7.684 17 9.5C17 10.2333 16.8833 10.925 16.65 11.575C16.4167 12.225 16.1 12.8 15.7 13.3L22 19.6L20.6 21ZM10.5 14C11.75 14 12.8127 13.5623 13.688 12.687C14.5633 11.8117 15.0007 10.7493 15 9.5C15 8.25 14.5623 7.18733 13.687 6.312C12.8117 5.43667 11.7493 4.99933 10.5 5C9.25 5 8.18733 5.43767 7.312 6.313C6.43667 7.18833 5.99933 8.25067 6 9.5C6 10.75 6.43767 11.8127 7.313 12.688C8.18833 13.5633 9.25067 14.0007 10.5 14Z" fill="#111111"/>
</g>
<defs>
<filter id="filter0_d_208_9" x="-3" y="0" width="32" height="32" filterUnits="userSpaceOnUse" color-interpolation-filters="sRGB">
<feFlood flood-opacity="0" result="BackgroundImageFix"/>
<feColorMatrix in="SourceAlpha" type="matrix" values="0 0 0 0 0 0 0 0 0 0 0 0 0 0 0 0 0 0 127 0" result="hardAlpha"/>
<feOffset dy="4"/>
<feGaussianBlur stdDeviation="2"/>
<feComposite in2="hardAlpha" operator="out"/>
<feColorMatrix type="matrix" values="0 0 0 0 0 0 0 0 0 0 0 0 0 0 0 0 0 0 0.25 0"/>
<feBlend mode="normal" in2="BackgroundImageFix" result="effect1_dropShadow_208_9"/>
<feBlend mode="normal" in="SourceGraphic" in2="effect1_dropShadow_208_9" result="shape"/>
</filter>
</defs>
</svg>
